<svg width="24" height="24" viewBox="0 0 24 24" fill="none" xmlns="http://www.w3.org/2000/svg">
<path d="M12.3623 6.0522C13.1866 6.0522 13.846 6.72632 13.846 7.54344C13.846 8.36056 13.166 9.03469 12.3623 9.03469C11.538 9.03469 10.858 8.36056 10.858 7.52301C10.858 6.70589 11.538 6.0522 12.3623 6.0522Z" fill="#F9F9F9"/>
<path d="M14.3845 16.161C14.348 16.2739 14.275 16.4055 14.2021 16.4808C13.7278 16.9886 13.1441 17.2895 12.4509 17.2895C12.1226 17.2895 11.8125 17.2895 11.4841 17.2331C10.9551 17.1579 10.2802 16.4808 10.3714 15.766L10.5903 14.299C10.6633 13.8758 10.7362 13.4479 10.8092 13.02C10.8822 12.5921 10.9551 12.1642 11.0281 11.741C11.0281 11.7128 11.0326 11.6846 11.0372 11.6564C11.0418 11.6282 11.0463 11.6 11.0463 11.5717C11.0463 11.2144 10.9369 11.0827 10.5903 11.0451C10.4444 11.0263 10.2984 11.0075 10.1525 10.9699C9.98833 10.9135 9.89712 10.763 9.91536 10.6313C9.9336 10.4809 10.0248 10.3868 10.2072 10.3492C10.2984 10.3304 10.4079 10.3304 10.5173 10.3304H13.0346C13.3447 10.3304 13.5272 10.4809 13.5272 10.8006C13.5272 11.0639 13.4907 11.3272 13.4359 11.5906C13.3539 12.0796 13.2672 12.5639 13.1806 13.0482C13.0939 13.5325 13.0073 14.0169 12.9252 14.5059C12.907 14.6124 12.8867 14.7189 12.8664 14.8254C12.8259 15.0386 12.7853 15.252 12.761 15.4651C12.7428 15.6156 12.761 15.7849 12.7975 15.9353C12.8522 16.1422 12.9982 16.2551 13.1988 16.2363C13.363 16.2175 13.5272 16.161 13.6913 16.0858C13.7448 16.0622 13.7951 16.0319 13.8449 16.002C13.9139 15.9605 13.982 15.9196 14.0562 15.8977C14.275 15.8225 14.4392 15.9541 14.3845 16.161Z" fill="#F9F9F9"/>
<path fill-rule="evenodd" clip-rule="evenodd" d="M12 24C18.6274 24 24 18.6274 24 12C24 5.37258 18.6274 0 12 0C5.37258 0 0 5.37258 0 12C0 18.6274 5.37258 24 12 24ZM12 21.913C6.52516 21.913 2.08694 17.4748 2.08694 12C2.08694 6.52516 6.52516 2.08694 12 2.08694C17.4748 2.08694 21.913 6.52516 21.913 12C21.913 17.4748 17.4748 21.913 12 21.913Z" fill="#F9F9F9"/>
</svg>
